PathFileType	4	(X/Y/Z)	C:/Users/beibeiliu/ov580/test_trc/User2\sequence.11_training_dense_right.trc
DataRate	CameraRate	NumFrames	NumMarkers	Units	OrigDataRate	OrigDataStartFrame	OrigNumFrames
120	120	10	19	mm	120	75	124
Frame#	Time	ThumbCMC			ThumbMCP			ThumbIP			ThumbTip			IndexMCP			IndexPIP			IndexTip			MiddleMCP			MiddlePIP			MiddleTip			RingMCP			RingPIP			RingTip			PinkyMCP			PinkyPIP			PinkyTip			BackHand1			BackHand2			BackHand3	
		X0	Y0	Z0	X1	Y1	Z1	X2	Y2	Z2	X3	Y3	Z3	X4	Y4	Z4	X5	Y5	Z5	X6	Y6	Z6	X7	Y7	Z7	X8	Y8	Z8	X9	Y9	Z9	X10	Y10	Z10	X11	Y11	Z11	X12	Y12	Z12	X13	Y13	Z13	X14	Y14	Z14	X15	Y15	Z15	X16	Y16	Z16	X17	Y17	Z17	X18	Y18	Z18	
74	0.616667	162.582	28.1684	-56.0875	129.116	27.5873	-81.5913	105.703	11.1274	-100.759	95.6407	-14.4151	-108.87	181.245	1.91065	-130.857	177.479	3.89062	-160.367	170.81	-0.851412	-184.049	173.251	-27.3679	-132.922	163.816	-35.8286	-161.682	155.966	-42.3117	-187.806	158.341	-45.3224	-118.546	144.68	-53.6251	-147.892	136.522	-56.4271	-168.766	128.095	-47.1913	-99.7568	100.522	-23.8733	-101.409	107.058	-2.58691	-78.0622	173.775	-40.1868	-67.309	182.825	-31.8727	-31.7225	193.708	-4.24936	-61.4178	
75	0.625	152.199	28.3229	-51.4519	123.463	21.9403	-79.6159	110.16	1.48394	-106.532	112.431	-26.2191	-124.171	188.124	22.2622	-125.296	186.551	25.8761	-152.471	185.026	27.7581	-178.839	193.783	-4.15987	-126.105	193.057	-8.62452	-161.074	190.985	-15.4019	-192.935	185.634	-31.8996	-124.394	182.425	-34.565	-147.171	175.87	-39.3458	-176.018	158.938	-47.1883	-106.906	127.147	-41.3859	-116.707	111.207	-23.6509	-90.8637	191.186	-29.0843	-65.825	191.063	-24.1166	-30.2036	195.16	12.1417	-53.3135	
76	0.633333	134.067	24.1273	-41.5944	115.936	12.8829	-79.8519	115.323	-5.24319	-108.726	127.691	-24.0779	-128.75	174.728	46.0056	-108.247	170.775	58.445	-135.497	173.53	60.8943	-167.132	192.478	29.5324	-116.312	197.878	31.1849	-148.636	199.446	33.6772	-178.001	195.695	2.58771	-114.589	199.183	0.922545	-145.355	197.637	0.808283	-171.471	181.068	-24.5316	-107.943	154.703	-32.325	-126.218	125.3	-32.1574	-107.232	193.7	-4.54152	-55.6134	195.92	-8.66394	-27.0047	178.865	25.9032	-37.1453	
77	0.641667	117.848	12.2877	-37.6687	109.182	0.329508	-73.4352	117.116	-7.60719	-108.094	139.977	-16.6491	-127.265	144.3	62.2306	-98.5134	142.045	71.5794	-123.057	145.18	80.8936	-149.247	173.631	51.5053	-104.835	175.471	62.8001	-132.234	184.425	70.1706	-162.674	191.942	28.4507	-109.439	191.009	34.2942	-131.812	193.316	39.659	-158.489	191.361	-2.6012	-103.618	172.699	-15.2596	-129.584	145.695	-34.2231	-123.507	186.141	13.7657	-51.303	187.075	4.6074	-21.1245	159.469	29.7249	-31.5912	
78	0.65	107.828	-1.62486	-34.1653	101.238	-9.99713	-72.2927	118.946	-9.08262	-110.979	146.393	-10.4011	-119.861	125.086	51.9961	-91.9198	116.46	66.665	-116.378	118.411	78.621	-142.108	152.78	52.487	-96.45	157.615	66.0736	-126.27	159.625	79.2183	-153.852	177.203	36.4279	-102.055	181.663	44.3377	-127.403	181.197	51.7071	-153.837	188.342	10.4034	-99.9374	183.559	0.18502	-127.003	162.608	-18.9546	-140.537	173.853	21.447	-44.4667	172.272	12.2926	-12.0927	141.61	27.2029	-28.6607	
79	0.658333	102.392	-9.88819	-34.3405	96.9587	-14.7608	-71.8404	115.016	-15.7303	-101.059	143.021	-11.888	-112.729	108.68	43.5593	-95.9778	105.808	55.2106	-120.842	98.365	64.979	-143.974	137.994	44.8021	-99.5158	140.338	55.8001	-128.249	141.418	70.509	-160.598	163.557	30.4552	-99.7101	167.8	38.3746	-127.843	170.62	45.584	-156.143	186.485	8.16651	-95.763	183.564	3.55766	-122.979	182.212	-10.064	-150.218	163.905	19.139	-42.8814	162.588	13.0306	-13.6909	129.197	20.4521	-27.2592	
80	0.666667	98.7541	-15.7311	-31.7313	94.8645	-20.1604	-71.9645	114.747	-20.9216	-101.598	142.63	-19.227	-113.255	106.612	33.0414	-99.4402	97.2209	41.5007	-123.261	92.5073	50.154	-149.114	133.93	33.5094	-105.676	135.498	42.6381	-134.569	132.404	52.7436	-163.642	159.515	21.8828	-102.214	161.768	26.0862	-128.327	164.065	34.3681	-156.852	180.797	0.867842	-94.7483	188.942	-3.92754	-121.591	194.485	-6.82752	-148.038	157.803	13.7436	-45.2303	159.257	7.99312	-15.1333	124.509	14.6693	-29.1685	
81	0.675	96.69	-22.6291	-32.8007	92.2112	-30.7341	-70.0982	112.425	-32.5024	-101.05	141.56	-31.6626	-103.705	99.2309	19.8242	-102.788	91.7691	25.8564	-128.12	85.8928	33.6682	-155.602	131.787	21.6941	-113.002	130.437	26.4603	-143.69	126.687	33.5662	-171.786	157.48	10.7693	-107.972	157.389	15.3378	-134.385	163.749	20.135	-161.676	180.018	-10.5088	-97.5563	189.779	-14.0077	-119.652	197.711	-10.0013	-141.23	156.462	4.28958	-47.4365	161.098	2.48848	-16.8662	126.307	8.8789	-33.4596	
82	0.683333	91.3031	-26.1387	-33.1267	87.7287	-38.241	-68.1457	110.761	-44.2147	-97.2361	138.808	-46.0562	-100.701	99.5112	6.20783	-108.792	90.4267	10.0705	-130.921	85.6703	13.106	-156.513	126.45	5.26205	-114.578	122.12	7.69032	-142.382	122.398	10.5888	-179.78	152.088	-5.58845	-112.983	152.11	-4.35024	-139.555	155.337	-2.40628	-164.005	174.154	-26.5065	-96.4054	184.886	-32.2265	-119.928	192.373	-28.7278	-139.988	156.049	-5.36482	-56.4764	157.747	-2.88991	-23.9367	123.051	2.52291	-39.3916	
83	0.691667	93.4146	-22.6338	-27.4506	80.9628	-38.0466	-63.3342	97.8794	-52.0332	-91.2136	128.145	-58.8064	-95.9246	98.2397	-2.37167	-106.846	85.0406	0.502522	-133.032	76.9585	2.3311	-158.965	124.848	-10.0372	-116.146	118.557	-12.449	-145.323	114.336	-13.9111	-177.438	144.003	-23.9649	-110.843	145.775	-28.0111	-136.508	142.674	-26.518	-167.914	165.15	-46.909	-100.208	170.269	-54.824	-123.115	177.824	-55.6834	-141.442	156.662	-17.1321	-57.408	162.524	-13.454	-23.326	126.864	1.21853	-40.4552	
